<svg width="100" height="100" viewBox="0 0 100 100" fill="none" xmlns="http://www.w3.org/2000/svg">
  <!-- Background Circle -->
  <circle cx="50" cy="50" r="50" fill="url(#avatarGradient1)"/>
  
  <!-- Face -->
  <circle cx="50" cy="40" r="18" fill="#FDBCB4"/>
  
  <!-- Hair -->
  <path d="M32 35 Q50 20 68 35 Q68 25 50 22 Q32 25 32 35" fill="#8B4513"/>
  
  <!-- Eyes -->
  <circle cx="44" cy="37" r="2" fill="#2C3E50"/>
  <circle cx="56" cy="37" r="2" fill="#2C3E50"/>
  <circle cx="44.5" cy="36.5" r="0.8" fill="#FFFFFF"/>
  <circle cx="56.5" cy="36.5" r="0.8" fill="#FFFFFF"/>
  
  <!-- Eyebrows -->
  <path d="M41 33 Q44 32 47 33" stroke="#654321" stroke-width="1.5" fill="none" stroke-linecap="round"/>
  <path d="M53 33 Q56 32 59 33" stroke="#654321" stroke-width="1.5" fill="none" stroke-linecap="round"/>
  
  <!-- Nose -->
  <circle cx="50" cy="42" r="1" fill="#F4A688" opacity="0.6"/>
  
  <!-- Mouth -->
  <path d="M46 46 Q50 49 54 46" stroke="#E74C3C" stroke-width="1.5" fill="none" stroke-linecap="round"/>
  
  <!-- Body/Clothing -->
  <path d="M32 65 Q50 60 68 65 L68 100 L32 100 Z" fill="#E63946"/>
  
  <!-- Collar -->
  <path d="M42 65 Q50 62 58 65 Q50 68 42 65" fill="#FFFFFF"/>
  
  <!-- Gradients -->
  <defs>
    <linearGradient id="avatarGradient1" x1="0%" y1="0%" x2="100%" y2="100%">
      <stop offset="0%" style="stop-color:#FFE5E5;stop-opacity:1" />
      <stop offset="100%" style="stop-color:#FFB3B3;stop-opacity:1" />
    </linearGradient>
  </defs>
</svg>