<svg width="100" height="100" viewBox="0 0 100 100" fill="none" xmlns="http://www.w3.org/2000/svg">
  <!-- Background Circle -->
  <circle cx="50" cy="50" r="50" fill="url(#avatarGradient2)"/>
  
  <!-- Face -->
  <circle cx="50" cy="40" r="18" fill="#D4A574"/>
  
  <!-- Hair -->
  <path d="M30 32 Q50 18 70 32 Q70 28 65 25 Q50 20 35 25 Q30 28 30 32" fill="#2C1810"/>
  <path d="M30 32 Q35 30 40 32" fill="#2C1810"/>
  <path d="M60 32 Q65 30 70 32" fill="#2C1810"/>
  
  <!-- Eyes -->
  <circle cx="44" cy="37" r="2" fill="#1A1A1A"/>
  <circle cx="56" cy="37" r="2" fill="#1A1A1A"/>
  <circle cx="44.5" cy="36.5" r="0.8" fill="#FFFFFF"/>
  <circle cx="56.5" cy="36.5" r="0.8" fill="#FFFFFF"/>
  
  <!-- Eyebrows -->
  <path d="M41 33 Q44 31 47 33" stroke="#1A1A1A" stroke-width="1.5" fill="none" stroke-linecap="round"/>
  <path d="M53 33 Q56 31 59 33" stroke="#1A1A1A" stroke-width="1.5" fill="none" stroke-linecap="round"/>
  
  <!-- Nose -->
  <circle cx="50" cy="42" r="1" fill="#C19A6B" opacity="0.6"/>
  
  <!-- Mouth -->
  <path d="M46 46 Q50 49 54 46" stroke="#8B4513" stroke-width="1.5" fill="none" stroke-linecap="round"/>
  
  <!-- Beard -->
  <path d="M42 50 Q50 55 58 50 Q58 58 50 60 Q42 58 42 50" fill="#2C1810" opacity="0.8"/>
  
  <!-- Body/Clothing -->
  <path d="M32 65 Q50 60 68 65 L68 100 L32 100 Z" fill="#1E1E1E"/>
  
  <!-- Collar -->
  <path d="M42 65 Q50 62 58 65 Q50 68 42 65" fill="#FFFFFF"/>
  
  <!-- Gradients -->
  <defs>
    <linearGradient id="avatarGradient2" x1="0%" y1="0%" x2="100%" y2="100%">
      <stop offset="0%" style="stop-color:#E8F4FD;stop-opacity:1" />
      <stop offset="100%" style="stop-color:#B3D9FF;stop-opacity:1" />
    </linearGradient>
  </defs>
</svg>